{"accessors":[{"name":"Heart.2-Mesh_positions","componentType":5126,"count":180,"min":[-90.42523193359375,-95.82608032226562,-39.76008224487305],"max":[90.42523193359375,59.294071197509766,49.47639846801758],"type":"VEC3","bufferView":0,"byteOffset":0},{"name":"Heart.2-Mesh_texcoords","componentType":5126,"count":180,"min":[0,0],"max":[1,1],"type":"VEC2","bufferView":1,"byteOffset":0},{"name":"Heart.2-Mesh_0_indices","componentType":5123,"count":624,"min":[0],"max":[179],"type":"SCALAR","bufferView":2,"byteOffset":0}],"asset":{"generator":"obj2gltf","version":"2.0"},"buffers":[{"name":"input","byteLength":4848,"uri":"data:application/octet-stream;base64,"}],"bufferViews":[{"name":"bufferView_0","buffer":0,"byteLength":2160,"byteOffset":0,"byteStride":12,"target":34962},{"name":"bufferView_1","buffer":0,"byteLength":1440,"byteOffset":2160,"byteStride":8,"target":34962},{"name":"bufferView_2","buffer":0,"byteLength":1248,"byteOffset":3600,"target":34963}],"materials":[{"name":"Heart Red","pbrMetallicRoughness":{"baseColorFactor":[0.5,0.5,0.5,1],"metallicFactor":0,"roughnessFactor":1},"emissiveFactor":[0,0,0],"alphaMode":"OPAQUE","doubleSided":false}],"meshes":[{"name":"Heart.2-Mesh","primitives":[{"attributes":{"POSITION":0,"TEXCOORD_0":1},"indices":2,"material":0,"mode":4}]}],"nodes":[{"name":"Heart.2","mesh":0}],"scene":0,"scenes":[{"nodes":[0]}]}
